<svg width="37" height="31" viewBox="0 0 37 31" fill="none" xmlns="http://www.w3.org/2000/svg">
<rect width="37" height="31" rx="5" fill="#D7E9FF"/>
<path d="M12.8267 23.1349C12.4384 23.1349 12.1046 22.9976 11.8253 22.723C11.5459 22.4437 11.4062 22.1075 11.4062 21.7145C11.4062 21.3262 11.5459 20.9948 11.8253 20.7202C12.1046 20.4408 12.4384 20.3011 12.8267 20.3011C13.215 20.3011 13.5488 20.4408 13.8281 20.7202C14.1075 20.9948 14.2472 21.3262 14.2472 21.7145C14.2472 21.9749 14.1809 22.214 14.0483 22.4318C13.9205 22.6449 13.75 22.8153 13.5369 22.9432C13.3239 23.071 13.0871 23.1349 12.8267 23.1349ZM18.4908 23.1349C18.1025 23.1349 17.7687 22.9976 17.4893 22.723C17.21 22.4437 17.0703 22.1075 17.0703 21.7145C17.0703 21.3262 17.21 20.9948 17.4893 20.7202C17.7687 20.4408 18.1025 20.3011 18.4908 20.3011C18.879 20.3011 19.2128 20.4408 19.4922 20.7202C19.7715 20.9948 19.9112 21.3262 19.9112 21.7145C19.9112 21.9749 19.8449 22.214 19.7124 22.4318C19.5845 22.6449 19.4141 22.8153 19.201 22.9432C18.9879 23.071 18.7512 23.1349 18.4908 23.1349ZM24.1548 23.1349C23.7666 23.1349 23.4328 22.9976 23.1534 22.723C22.8741 22.4437 22.7344 22.1075 22.7344 21.7145C22.7344 21.3262 22.8741 20.9948 23.1534 20.7202C23.4328 20.4408 23.7666 20.3011 24.1548 20.3011C24.5431 20.3011 24.8769 20.4408 25.1562 20.7202C25.4356 20.9948 25.5753 21.3262 25.5753 21.7145C25.5753 21.9749 25.509 22.214 25.3764 22.4318C25.2486 22.6449 25.0781 22.8153 24.8651 22.9432C24.652 23.071 24.4152 23.1349 24.1548 23.1349Z" fill="#016CE9"/>
</svg>
