<svg width="22" height="24" viewBox="0 0 22 24" fill="none" xmlns="http://www.w3.org/2000/svg">
<path d="M11 9.81792C10.5762 9.81807 10.1619 9.94319 9.80956 10.1774C9.45723 10.4117 9.18267 10.7445 9.02058 11.1339C8.8585 11.5233 8.81617 11.9518 8.89896 12.3651C8.98174 12.7784 9.18592 13.158 9.48567 13.456C9.78542 13.7539 10.1673 13.9568 10.583 14.0389C10.9987 14.1211 11.4296 14.0788 11.8211 13.9175C12.2127 13.7562 12.5473 13.4831 12.7828 13.1327C13.0183 12.7823 13.1439 12.3703 13.1439 11.9489C13.1435 11.3837 12.9175 10.8418 12.5155 10.4422C12.1135 10.0427 11.5684 9.81813 11 9.81792ZM16.0107 8.17995C15.9016 7.90503 15.7368 7.65533 15.5266 7.44635C15.3165 7.23736 15.0653 7.07355 14.7888 6.96507C13.9451 6.63388 11.9362 6.70819 11 6.70819C10.0638 6.70819 8.05692 6.63108 7.21076 6.96507C6.93427 7.07355 6.68314 7.23736 6.47296 7.44635C6.26278 7.65533 6.09803 7.90503 5.98893 8.17995C5.65625 9.01891 5.73058 11.0184 5.73058 11.9485C5.73058 12.8785 5.65625 14.8756 5.99054 15.7174C6.09964 15.9923 6.26439 16.242 6.47457 16.451C6.68475 16.66 6.93587 16.8238 7.21237 16.9323C8.05612 17.2634 10.065 17.1891 11.0016 17.1891C11.9382 17.1891 13.9443 17.2662 14.7904 16.9323C15.0669 16.8238 15.3181 16.66 15.5282 16.451C15.7384 16.242 15.9032 15.9923 16.0123 15.7174C16.3478 14.8784 16.2706 12.8789 16.2706 11.9489C16.2706 11.0188 16.3478 9.02211 16.0123 8.18035L16.0107 8.17995ZM11 15.2248C10.3484 15.2248 9.7114 15.0327 9.16959 14.6727C8.62779 14.3127 8.20551 13.8011 7.95615 13.2025C7.70678 12.6039 7.64154 11.9452 7.76866 11.3098C7.89579 10.6743 8.20957 10.0906 8.67034 9.63244C9.1311 9.17429 9.71815 8.86229 10.3572 8.73589C10.9963 8.60948 11.6588 8.67436 12.2608 8.92231C12.8628 9.17025 13.3774 9.59014 13.7394 10.1289C14.1014 10.6676 14.2946 11.3009 14.2946 11.9489C14.2952 12.3792 14.2103 12.8054 14.0449 13.2031C13.8795 13.6008 13.6369 13.9622 13.3308 14.2665C13.0248 14.5708 12.6614 14.812 12.2614 14.9765C11.8615 15.1409 11.4328 15.2253 11 15.2248ZM14.4304 9.30016C14.2783 9.30024 14.1296 9.25546 14.0031 9.17149C13.8766 9.08751 13.7779 8.96812 13.7197 8.82841C13.6614 8.68869 13.6461 8.53493 13.6758 8.38658C13.7054 8.23823 13.7786 8.10194 13.8861 7.99496C13.9937 7.88799 14.1307 7.81512 14.2799 7.78558C14.4291 7.75605 14.5837 7.77117 14.7242 7.82903C14.8648 7.88689 14.9849 7.9849 15.0694 8.11065C15.1539 8.23641 15.1991 8.38426 15.1991 8.53551C15.1995 8.63595 15.18 8.73549 15.1416 8.82841C15.1033 8.92133 15.0468 9.00581 14.9756 9.077C14.9043 9.14818 14.8196 9.20468 14.7263 9.24326C14.6331 9.28183 14.5331 9.30171 14.4321 9.30176L14.4304 9.30016ZM18.0714 3H3.92857C3.41708 3 2.92654 3.20203 2.56487 3.56166C2.20319 3.92128 2 4.40903 2 4.91761L2 18.9801C2 19.4887 2.20319 19.9764 2.56487 20.3361C2.92654 20.6957 3.41708 20.8977 3.92857 20.8977H18.0714C18.5829 20.8977 19.0735 20.6957 19.4351 20.3361C19.7968 19.9764 20 19.4887 20 18.9801V4.91761C20 4.40903 19.7968 3.92128 19.4351 3.56166C19.0735 3.20203 18.5829 3 18.0714 3ZM17.3836 14.5856C17.3317 15.6095 17.0967 16.5168 16.345 17.2623C15.5932 18.0077 14.6816 18.2462 13.653 18.295C12.5919 18.3545 9.41054 18.3545 8.34942 18.295C7.31964 18.2434 6.4104 18.0093 5.65746 17.2623C4.90451 16.5152 4.66786 15.6075 4.61884 14.5856C4.55897 13.5301 4.55897 10.3664 4.61884 9.31215C4.67067 8.28822 4.9029 7.38095 5.65746 6.63548C6.41201 5.89 7.32366 5.6543 8.34942 5.60556C9.41054 5.54603 12.5919 5.54603 13.653 5.60556C14.6828 5.65709 15.5948 5.8912 16.345 6.63827C17.0951 7.38534 17.3346 8.29301 17.3836 9.31694C17.4434 10.3684 17.4434 13.5293 17.3836 14.5856Z" fill="white"/>
</svg>
