<svg width="25" height="24" viewBox="0 0 25 24" fill="none" xmlns="http://www.w3.org/2000/svg">
<path d="M20.745 2.625H3.495C3.08015 2.625 2.745 2.96016 2.745 3.375V20.625C2.745 21.0398 3.08015 21.375 3.495 21.375H20.745C21.1598 21.375 21.495 21.0398 21.495 20.625V3.375C21.495 2.96016 21.1598 2.625 20.745 2.625ZM8.30671 18.6023H5.52468V9.65391H8.30671V18.6023ZM6.91687 8.43047C6.59795 8.43047 6.28619 8.3359 6.02101 8.15871C5.75584 7.98153 5.54916 7.72969 5.42711 7.43505C5.30507 7.1404 5.27314 6.81618 5.33535 6.50339C5.39757 6.19059 5.55115 5.90327 5.77666 5.67776C6.00217 5.45225 6.28949 5.29867 6.60229 5.23645C6.91508 5.17423 7.2393 5.20617 7.53395 5.32821C7.82859 5.45026 8.08043 5.65694 8.25762 5.92211C8.4348 6.18729 8.52937 6.49905 8.52937 6.81797C8.52703 7.70859 7.80515 8.43047 6.91687 8.43047ZM18.7223 18.6023H15.9427V14.25C15.9427 13.2117 15.9239 11.8781 14.4966 11.8781C13.0505 11.8781 12.8278 13.0078 12.8278 14.175V18.6023H10.0505V9.65391H12.7177V10.8773H12.7552C13.1255 10.1742 14.0325 9.43125 15.3872 9.43125C18.2044 9.43125 18.7223 11.2852 18.7223 13.6945V18.6023Z" fill="white"/>
</svg>
