<svg width="33" height="31" viewBox="0 0 33 31" fill="none" xmlns="http://www.w3.org/2000/svg">
<rect width="33" height="31" rx="5" fill="#D7E9FF"/>
<path d="M16.4631 23.1989C15.4877 23.1989 14.6165 23.0308 13.8494 22.6946C13.0871 22.3584 12.4834 21.892 12.0384 21.2955C11.598 20.6941 11.3613 19.9981 11.3281 19.2074H13.5582C13.5866 19.6383 13.7311 20.0123 13.9915 20.3295C14.2566 20.642 14.6023 20.8835 15.0284 21.054C15.4545 21.2244 15.928 21.3097 16.4489 21.3097C17.0218 21.3097 17.5284 21.2102 17.9688 21.0114C18.4138 20.8125 18.7618 20.5355 19.0128 20.1804C19.2637 19.8205 19.3892 19.4062 19.3892 18.9375C19.3892 18.4498 19.2637 18.0213 19.0128 17.652C18.7666 17.2779 18.4044 16.9844 17.9261 16.7713C17.4527 16.5582 16.8797 16.4517 16.2074 16.4517H14.9787V14.6619H16.2074C16.7472 14.6619 17.2206 14.5649 17.6278 14.3707C18.0398 14.1766 18.3617 13.9067 18.5938 13.5611C18.8258 13.2107 18.9418 12.8011 18.9418 12.3324C18.9418 11.8826 18.84 11.492 18.6364 11.1605C18.4375 10.8243 18.1534 10.5616 17.7841 10.3722C17.4195 10.1828 16.9886 10.0881 16.4915 10.0881C16.018 10.0881 15.5753 10.1757 15.1634 10.3509C14.7562 10.5213 14.4247 10.7675 14.169 11.0895C13.9134 11.4067 13.776 11.7879 13.7571 12.233H11.6335C11.6572 11.447 11.8892 10.7557 12.3295 10.1591C12.7746 9.5625 13.3617 9.09612 14.0909 8.75994C14.8201 8.42377 15.6297 8.25568 16.5199 8.25568C17.4527 8.25568 18.2576 8.43797 18.9347 8.80256C19.6165 9.1624 20.142 9.64299 20.5114 10.2443C20.8854 10.8456 21.0701 11.5038 21.0653 12.2188C21.0701 13.0331 20.8428 13.7244 20.3835 14.2926C19.929 14.8608 19.3229 15.242 18.5653 15.4361V15.5497C19.5313 15.6965 20.2794 16.08 20.8097 16.7003C21.3447 17.3205 21.6098 18.09 21.6051 19.0085C21.6098 19.8087 21.3873 20.526 20.9375 21.1605C20.4924 21.795 19.884 22.2945 19.1122 22.6591C18.3404 23.0189 17.4574 23.1989 16.4631 23.1989Z" fill="#016CE9"/>
</svg>
