<svg width="25" height="24" viewBox="0 0 25 24" fill="none" xmlns="http://www.w3.org/2000/svg">
<path d="M20.745 2.625H3.495C3.08015 2.625 2.745 2.96016 2.745 3.375V20.625C2.745 21.0398 3.08015 21.375 3.495 21.375H20.745C21.1598 21.375 21.495 21.0398 21.495 20.625V3.375C21.495 2.96016 21.1598 2.625 20.745 2.625ZM17.1661 9.41484C17.1731 9.525 17.1731 9.63984 17.1731 9.75234C17.1731 13.193 14.5528 17.1562 9.76453 17.1562C8.28796 17.1562 6.91921 16.7273 5.76609 15.9891C5.97703 16.0125 6.17859 16.0219 6.39421 16.0219C7.61296 16.0219 8.73328 15.6094 9.62625 14.9109C8.4825 14.8875 7.52156 14.1375 7.19343 13.1063C7.59421 13.1648 7.95515 13.1648 8.36765 13.0594C7.77873 12.9397 7.24939 12.6199 6.86956 12.1542C6.48974 11.6885 6.28285 11.1056 6.28406 10.5047V10.4719C6.62859 10.6664 7.03406 10.7859 7.45828 10.8023C7.10166 10.5647 6.80919 10.2427 6.60682 9.86491C6.40444 9.48715 6.29841 9.06528 6.29812 8.63672C6.29812 8.15156 6.42468 7.70859 6.65203 7.32422C7.3057 8.12891 8.1214 8.78705 9.04608 9.25586C9.97077 9.72466 10.9838 9.99364 12.0192 10.0453C11.6512 8.27578 12.9731 6.84375 14.5622 6.84375C15.3122 6.84375 15.9872 7.15781 16.463 7.66406C17.0512 7.55391 17.6137 7.33359 18.1153 7.03828C17.9208 7.64062 17.513 8.14922 16.9716 8.47031C17.4966 8.41406 18.0028 8.26875 18.4716 8.06484C18.1177 8.58516 17.6747 9.04688 17.1661 9.41484Z" fill="white"/>
</svg>
