<svg width="33" height="31" viewBox="0 0 33 31" fill="none" xmlns="http://www.w3.org/2000/svg">
<rect width="33" height="31" rx="5" fill="#D7E9FF"/>
<path d="M11.3991 23V21.4091L16.321 16.3097C16.8466 15.7557 17.2798 15.2704 17.6207 14.8537C17.9664 14.4323 18.2244 14.0322 18.3949 13.6534C18.5653 13.2746 18.6506 12.8722 18.6506 12.446C18.6506 11.9631 18.5369 11.5464 18.3097 11.196C18.0824 10.8409 17.7723 10.5687 17.3793 10.3793C16.9863 10.1851 16.5436 10.0881 16.0511 10.0881C15.5303 10.0881 15.0758 10.1946 14.6875 10.4077C14.2992 10.6207 14.0009 10.9214 13.7926 11.3097C13.5843 11.6979 13.4801 12.1525 13.4801 12.6733H11.3849C11.3849 11.7879 11.5885 11.0137 11.9957 10.3509C12.4029 9.68797 12.9616 9.17424 13.6719 8.80966C14.3821 8.44034 15.1894 8.25568 16.0938 8.25568C17.0076 8.25568 17.8125 8.43797 18.5085 8.80256C19.2093 9.1624 19.7562 9.65483 20.1491 10.2798C20.5421 10.9001 20.7386 11.6009 20.7386 12.3821C20.7386 12.9219 20.6368 13.4498 20.4332 13.9659C20.2344 14.482 19.8864 15.0573 19.3892 15.6918C18.892 16.3215 18.2008 17.0862 17.3153 17.9858L14.4247 21.0114V21.1179H20.973V23H11.3991Z" fill="#016CE9"/>
</svg>
